<svg width="143" height="36" viewBox="0 0 143 36" fill="none" xmlns="http://www.w3.org/2000/svg">
<g clip-path="url(#clip0_1014_5660)">
<path d="M1.30273 17.6339C1.30273 26.97 1.32715 34.6049 1.36785 34.6049C1.40041 34.6049 1.66901 34.1328 1.96204 33.563C2.5318 32.4723 3.25622 31.0723 6.34111 25.1793C7.37483 23.2014 8.22134 21.5409 8.22134 21.5002C8.22134 21.4514 7.25274 21.4188 5.53529 21.4188C4.06204 21.4188 2.84925 21.3944 2.84925 21.3618C2.84925 21.2967 11.1516 4.79787 11.2248 4.70834C11.2574 4.67578 13.1213 4.6595 15.3679 4.66764L19.4458 4.69206L18.2167 6.80834C17.5411 7.97229 16.1818 10.3165 15.1969 12.0176C14.212 13.7188 13.2272 15.4118 13.0155 15.7781L12.6248 16.4537H15.7911C17.5411 16.4537 18.9655 16.4862 18.9655 16.5188C18.9655 16.5676 11.6806 24.6909 8.13994 28.5816C5.54343 31.4386 2.11669 35.2723 2.11669 35.3211C2.11669 35.3537 5.87715 35.3537 10.476 35.3293C19.5923 35.2804 19.0551 35.3049 21.0411 34.8002C23.2388 34.2386 25.6399 33.0339 27.4306 31.6014C28.2365 30.9583 29.5062 29.6886 30.1655 28.8665C32.6481 25.7653 33.9667 22.0374 33.9586 18.0816C33.9586 15.2735 33.4376 12.9537 32.2411 10.4711C30.019 5.85601 25.8679 2.44554 20.9434 1.18391C18.9086 0.662983 18.876 0.662987 9.63762 0.662987H1.30273V17.6339Z" fill="white"/>
</g>
<path d="M42.992 27V10.2H50.624C52.448 10.2 54.056 10.552 55.448 11.256C56.84 11.944 57.928 12.912 58.712 14.16C59.496 15.408 59.888 16.888 59.888 18.6C59.888 20.296 59.496 21.776 58.712 23.04C57.928 24.288 56.84 25.264 55.448 25.968C54.056 26.656 52.448 27 50.624 27H42.992ZM46.88 23.808H50.432C51.552 23.808 52.52 23.6 53.336 23.184C54.168 22.752 54.808 22.144 55.256 21.36C55.72 20.576 55.952 19.656 55.952 18.6C55.952 17.528 55.72 16.608 55.256 15.84C54.808 15.056 54.168 14.456 53.336 14.04C52.52 13.608 51.552 13.392 50.432 13.392H46.88V23.808ZM70.4761 27V24.48L70.2361 23.928V19.416C70.2361 18.616 69.9881 17.992 69.4921 17.544C69.0121 17.096 68.2681 16.872 67.2601 16.872C66.5721 16.872 65.8921 16.984 65.2201 17.208C64.5641 17.416 64.0041 17.704 63.5401 18.072L62.1961 15.456C62.9001 14.96 63.7481 14.576 64.7401 14.304C65.7321 14.032 66.7401 13.896 67.7641 13.896C69.7321 13.896 71.2601 14.36 72.3481 15.288C73.4361 16.216 73.9801 17.664 73.9801 19.632V27H70.4761ZM66.5401 27.192C65.5321 27.192 64.6681 27.024 63.9481 26.688C63.2281 26.336 62.6761 25.864 62.2921 25.272C61.9081 24.68 61.7161 24.016 61.7161 23.28C61.7161 22.512 61.9001 21.84 62.2681 21.264C62.6521 20.688 63.2521 20.24 64.0681 19.92C64.8841 19.584 65.9481 19.416 67.2601 19.416H70.6921V21.6H67.6681C66.7881 21.6 66.1801 21.744 65.8441 22.032C65.5241 22.32 65.3641 22.68 65.3641 23.112C65.3641 23.592 65.5481 23.976 65.9161 24.264C66.3001 24.536 66.8201 24.672 67.4761 24.672C68.1001 24.672 68.6601 24.528 69.1561 24.24C69.6521 23.936 70.0121 23.496 70.2361 22.92L70.8121 24.648C70.5401 25.48 70.0441 26.112 69.3241 26.544C68.6041 26.976 67.6761 27.192 66.5401 27.192ZM82.6486 27.192C81.1286 27.192 79.9446 26.808 79.0966 26.04C78.2486 25.256 77.8246 24.096 77.8246 22.56V11.232H81.5686V22.512C81.5686 23.056 81.7126 23.48 82.0006 23.784C82.2886 24.072 82.6806 24.216 83.1766 24.216C83.7686 24.216 84.2726 24.056 84.6886 23.736L85.6966 26.376C85.3126 26.648 84.8486 26.856 84.3046 27C83.7766 27.128 83.2246 27.192 82.6486 27.192ZM75.8326 17.256V14.376H84.7846V17.256H75.8326ZM95.7183 27V24.48L95.4783 23.928V19.416C95.4783 18.616 95.2303 17.992 94.7343 17.544C94.2543 17.096 93.5103 16.872 92.5023 16.872C91.8143 16.872 91.1343 16.984 90.4623 17.208C89.8063 17.416 89.2463 17.704 88.7823 18.072L87.4383 15.456C88.1423 14.96 88.9903 14.576 89.9823 14.304C90.9743 14.032 91.9823 13.896 93.0063 13.896C94.9743 13.896 96.5023 14.36 97.5903 15.288C98.6783 16.216 99.2223 17.664 99.2223 19.632V27H95.7183ZM91.7823 27.192C90.7743 27.192 89.9103 27.024 89.1903 26.688C88.4703 26.336 87.9183 25.864 87.5343 25.272C87.1503 24.68 86.9583 24.016 86.9583 23.28C86.9583 22.512 87.1423 21.84 87.5103 21.264C87.8943 20.688 88.4943 20.24 89.3103 19.92C90.1263 19.584 91.1903 19.416 92.5023 19.416H95.9343V21.6H92.9103C92.0303 21.6 91.4223 21.744 91.0863 22.032C90.7663 22.32 90.6063 22.68 90.6063 23.112C90.6063 23.592 90.7903 23.976 91.1583 24.264C91.5423 24.536 92.0623 24.672 92.7183 24.672C93.3423 24.672 93.9023 24.528 94.3983 24.24C94.8943 23.936 95.2543 23.496 95.4783 22.92L96.0543 24.648C95.7823 25.48 95.2863 26.112 94.5663 26.544C93.8463 26.976 92.9183 27.192 91.7823 27.192ZM102.611 27V14.088H106.187V17.736L105.683 16.68C106.067 15.768 106.683 15.08 107.531 14.616C108.379 14.136 109.411 13.896 110.627 13.896V17.352C110.467 17.336 110.323 17.328 110.195 17.328C110.067 17.312 109.931 17.304 109.787 17.304C108.763 17.304 107.931 17.6 107.291 18.192C106.667 18.768 106.355 19.672 106.355 20.904V27H102.611ZM118.831 31.848C117.615 31.848 116.439 31.696 115.303 31.392C114.183 31.104 113.247 30.664 112.495 30.072L113.983 27.384C114.527 27.832 115.215 28.184 116.047 28.44C116.895 28.712 117.727 28.848 118.543 28.848C119.871 28.848 120.831 28.552 121.423 27.96C122.031 27.368 122.335 26.488 122.335 25.32V23.376L122.575 20.136L122.527 16.872V14.088H126.079V24.84C126.079 27.24 125.455 29.008 124.207 30.144C122.959 31.28 121.167 31.848 118.831 31.848ZM118.255 26.376C117.055 26.376 115.967 26.12 114.991 25.608C114.031 25.08 113.255 24.352 112.663 23.424C112.087 22.48 111.799 21.384 111.799 20.136C111.799 18.872 112.087 17.776 112.663 16.848C113.255 15.904 114.031 15.176 114.991 14.664C115.967 14.152 117.055 13.896 118.255 13.896C119.343 13.896 120.303 14.12 121.135 14.568C121.967 15 122.615 15.68 123.079 16.608C123.543 17.52 123.775 18.696 123.775 20.136C123.775 21.56 123.543 22.736 123.079 23.664C122.615 24.576 121.967 25.256 121.135 25.704C120.303 26.152 119.343 26.376 118.255 26.376ZM118.999 23.304C119.655 23.304 120.239 23.176 120.751 22.92C121.263 22.648 121.663 22.272 121.951 21.792C122.239 21.312 122.383 20.76 122.383 20.136C122.383 19.496 122.239 18.944 121.951 18.48C121.663 18 121.263 17.632 120.751 17.376C120.239 17.104 119.655 16.968 118.999 16.968C118.343 16.968 117.759 17.104 117.247 17.376C116.735 17.632 116.327 18 116.023 18.48C115.735 18.944 115.591 19.496 115.591 20.136C115.591 20.76 115.735 21.312 116.023 21.792C116.327 22.272 116.735 22.648 117.247 22.92C117.759 23.176 118.343 23.304 118.999 23.304ZM131.196 31.848C130.524 31.848 129.86 31.744 129.204 31.536C128.548 31.328 128.012 31.04 127.596 30.672L128.964 28.008C129.252 28.264 129.58 28.464 129.948 28.608C130.332 28.752 130.708 28.824 131.076 28.824C131.604 28.824 132.02 28.696 132.324 28.44C132.644 28.2 132.932 27.792 133.188 27.216L133.86 25.632L134.148 25.224L138.78 14.088H142.38L136.548 27.792C136.132 28.832 135.652 29.648 135.108 30.24C134.58 30.832 133.988 31.248 133.332 31.488C132.692 31.728 131.98 31.848 131.196 31.848ZM133.404 27.504L127.644 14.088H131.508L135.972 24.888L133.404 27.504Z" fill="white"/>
<defs>
<clipPath id="clip0_1014_5660">
<rect width="35" height="35" fill="white" transform="translate(0 0.5)"/>
</clipPath>
</defs>
</svg>
