<svg width="144" height="37" viewBox="0 0 144 37" fill="none" xmlns="http://www.w3.org/2000/svg">
<path d="M1.80273 18.1339C1.80273 27.47 1.82715 35.1049 1.86785 35.1049C1.90041 35.1049 2.16901 34.6328 2.46204 34.063C3.0318 32.9723 3.75622 31.5723 6.84111 25.6793C7.87483 23.7014 8.72134 22.0409 8.72134 22.0002C8.72134 21.9514 7.75274 21.9188 6.03529 21.9188C4.56204 21.9188 3.34925 21.8944 3.34925 21.8618C3.34925 21.7967 11.6516 5.29787 11.7248 5.20834C11.7574 5.17578 13.6213 5.1595 15.8679 5.16764L19.9458 5.19206L18.7167 7.30834C18.0411 8.47229 16.6818 10.8165 15.6969 12.5176C14.712 14.2188 13.7272 15.9118 13.5155 16.2781L13.1248 16.9537H16.2911C18.0411 16.9537 19.4655 16.9862 19.4655 17.0188C19.4655 17.0676 12.1806 25.1909 8.63994 29.0816C6.04343 31.9386 2.61669 35.7723 2.61669 35.8211C2.61669 35.8537 6.37715 35.8537 10.976 35.8293C20.0923 35.7804 19.5551 35.8049 21.5411 35.3002C23.7388 34.7386 26.1399 33.5339 27.9306 32.1014C28.7365 31.4583 30.0062 30.1886 30.6655 29.3665C33.1481 26.2653 34.4667 22.5374 34.4586 18.5816C34.4586 15.7735 33.9376 13.4537 32.7411 10.9711C30.519 6.35601 26.3679 2.94554 21.4434 1.68391C19.4086 1.16298 19.376 1.16299 10.1376 1.16299H1.80273V18.1339Z" fill="black"/>
<path d="M43.492 27.5V10.7H51.124C52.948 10.7 54.556 11.052 55.948 11.756C57.34 12.444 58.428 13.412 59.212 14.66C59.996 15.908 60.388 17.388 60.388 19.1C60.388 20.796 59.996 22.276 59.212 23.54C58.428 24.788 57.34 25.764 55.948 26.468C54.556 27.156 52.948 27.5 51.124 27.5H43.492ZM47.38 24.308H50.932C52.052 24.308 53.02 24.1 53.836 23.684C54.668 23.252 55.308 22.644 55.756 21.86C56.22 21.076 56.452 20.156 56.452 19.1C56.452 18.028 56.22 17.108 55.756 16.34C55.308 15.556 54.668 14.956 53.836 14.54C53.02 14.108 52.052 13.892 50.932 13.892H47.38V24.308ZM70.9761 27.5V24.98L70.7361 24.428V19.916C70.7361 19.116 70.4881 18.492 69.9921 18.044C69.5121 17.596 68.7681 17.372 67.7601 17.372C67.0721 17.372 66.3921 17.484 65.7201 17.708C65.0641 17.916 64.5041 18.204 64.0401 18.572L62.6961 15.956C63.4001 15.46 64.2481 15.076 65.2401 14.804C66.2321 14.532 67.2401 14.396 68.2641 14.396C70.2321 14.396 71.7601 14.86 72.8481 15.788C73.9361 16.716 74.4801 18.164 74.4801 20.132V27.5H70.9761ZM67.0401 27.692C66.0321 27.692 65.1681 27.524 64.4481 27.188C63.7281 26.836 63.1761 26.364 62.7921 25.772C62.4081 25.18 62.2161 24.516 62.2161 23.78C62.2161 23.012 62.4001 22.34 62.7681 21.764C63.1521 21.188 63.7521 20.74 64.5681 20.42C65.3841 20.084 66.4481 19.916 67.7601 19.916H71.1921V22.1H68.1681C67.2881 22.1 66.6801 22.244 66.3441 22.532C66.0241 22.82 65.8641 23.18 65.8641 23.612C65.8641 24.092 66.0481 24.476 66.4161 24.764C66.8001 25.036 67.3201 25.172 67.9761 25.172C68.6001 25.172 69.1601 25.028 69.6561 24.74C70.1521 24.436 70.5121 23.996 70.7361 23.42L71.3121 25.148C71.0401 25.98 70.5441 26.612 69.8241 27.044C69.1041 27.476 68.1761 27.692 67.0401 27.692ZM83.1486 27.692C81.6286 27.692 80.4446 27.308 79.5966 26.54C78.7486 25.756 78.3246 24.596 78.3246 23.06V11.732H82.0686V23.012C82.0686 23.556 82.2126 23.98 82.5006 24.284C82.7886 24.572 83.1806 24.716 83.6766 24.716C84.2686 24.716 84.7726 24.556 85.1886 24.236L86.1966 26.876C85.8126 27.148 85.3486 27.356 84.8046 27.5C84.2766 27.628 83.7246 27.692 83.1486 27.692ZM76.3326 17.756V14.876H85.2846V17.756H76.3326ZM96.2183 27.5V24.98L95.9783 24.428V19.916C95.9783 19.116 95.7303 18.492 95.2343 18.044C94.7543 17.596 94.0103 17.372 93.0023 17.372C92.3143 17.372 91.6343 17.484 90.9623 17.708C90.3063 17.916 89.7463 18.204 89.2823 18.572L87.9383 15.956C88.6423 15.46 89.4903 15.076 90.4823 14.804C91.4743 14.532 92.4823 14.396 93.5063 14.396C95.4743 14.396 97.0023 14.86 98.0903 15.788C99.1783 16.716 99.7223 18.164 99.7223 20.132V27.5H96.2183ZM92.2823 27.692C91.2743 27.692 90.4103 27.524 89.6903 27.188C88.9703 26.836 88.4183 26.364 88.0343 25.772C87.6503 25.18 87.4583 24.516 87.4583 23.78C87.4583 23.012 87.6423 22.34 88.0103 21.764C88.3943 21.188 88.9943 20.74 89.8103 20.42C90.6263 20.084 91.6903 19.916 93.0023 19.916H96.4343V22.1H93.4103C92.5303 22.1 91.9223 22.244 91.5863 22.532C91.2663 22.82 91.1063 23.18 91.1063 23.612C91.1063 24.092 91.2903 24.476 91.6583 24.764C92.0423 25.036 92.5623 25.172 93.2183 25.172C93.8423 25.172 94.4023 25.028 94.8983 24.74C95.3943 24.436 95.7543 23.996 95.9783 23.42L96.5543 25.148C96.2823 25.98 95.7863 26.612 95.0663 27.044C94.3463 27.476 93.4183 27.692 92.2823 27.692ZM103.111 27.5V14.588H106.687V18.236L106.183 17.18C106.567 16.268 107.183 15.58 108.031 15.116C108.879 14.636 109.911 14.396 111.127 14.396V17.852C110.967 17.836 110.823 17.828 110.695 17.828C110.567 17.812 110.431 17.804 110.287 17.804C109.263 17.804 108.431 18.1 107.791 18.692C107.167 19.268 106.855 20.172 106.855 21.404V27.5H103.111ZM119.331 32.348C118.115 32.348 116.939 32.196 115.803 31.892C114.683 31.604 113.747 31.164 112.995 30.572L114.483 27.884C115.027 28.332 115.715 28.684 116.547 28.94C117.395 29.212 118.227 29.348 119.043 29.348C120.371 29.348 121.331 29.052 121.923 28.46C122.531 27.868 122.835 26.988 122.835 25.82V23.876L123.075 20.636L123.027 17.372V14.588H126.579V25.34C126.579 27.74 125.955 29.508 124.707 30.644C123.459 31.78 121.667 32.348 119.331 32.348ZM118.755 26.876C117.555 26.876 116.467 26.62 115.491 26.108C114.531 25.58 113.755 24.852 113.163 23.924C112.587 22.98 112.299 21.884 112.299 20.636C112.299 19.372 112.587 18.276 113.163 17.348C113.755 16.404 114.531 15.676 115.491 15.164C116.467 14.652 117.555 14.396 118.755 14.396C119.843 14.396 120.803 14.62 121.635 15.068C122.467 15.5 123.115 16.18 123.579 17.108C124.043 18.02 124.275 19.196 124.275 20.636C124.275 22.06 124.043 23.236 123.579 24.164C123.115 25.076 122.467 25.756 121.635 26.204C120.803 26.652 119.843 26.876 118.755 26.876ZM119.499 23.804C120.155 23.804 120.739 23.676 121.251 23.42C121.763 23.148 122.163 22.772 122.451 22.292C122.739 21.812 122.883 21.26 122.883 20.636C122.883 19.996 122.739 19.444 122.451 18.98C122.163 18.5 121.763 18.132 121.251 17.876C120.739 17.604 120.155 17.468 119.499 17.468C118.843 17.468 118.259 17.604 117.747 17.876C117.235 18.132 116.827 18.5 116.523 18.98C116.235 19.444 116.091 19.996 116.091 20.636C116.091 21.26 116.235 21.812 116.523 22.292C116.827 22.772 117.235 23.148 117.747 23.42C118.259 23.676 118.843 23.804 119.499 23.804ZM131.696 32.348C131.024 32.348 130.36 32.244 129.704 32.036C129.048 31.828 128.512 31.54 128.096 31.172L129.464 28.508C129.752 28.764 130.08 28.964 130.448 29.108C130.832 29.252 131.208 29.324 131.576 29.324C132.104 29.324 132.52 29.196 132.824 28.94C133.144 28.7 133.432 28.292 133.688 27.716L134.36 26.132L134.648 25.724L139.28 14.588H142.88L137.048 28.292C136.632 29.332 136.152 30.148 135.608 30.74C135.08 31.332 134.488 31.748 133.832 31.988C133.192 32.228 132.48 32.348 131.696 32.348ZM133.904 28.004L128.144 14.588H132.008L136.472 25.388L133.904 28.004Z" fill="#1D2027"/>
</svg>
